<svg width="21" height="18" viewBox="0 0 21 18" fill="none" xmlns="http://www.w3.org/2000/svg">
<path d="M2 0C0.906937 0 0 0.906937 0 2V12C0 13.0931 0.906937 14 2 14H15C16.0931 14 17 13.0931 17 12V2C17 0.906937 16.0931 0 15 0H2ZM2 2H15V9L13.2207 7.2207C12.8227 6.8227 12.1773 6.82175 11.7793 7.21875L9.04883 9.94336C8.65883 10.3324 8.02577 10.3333 7.63477 9.94531C7.24177 9.55531 7.23986 8.91934 7.63086 8.52734L8.48047 7.67773L7.15625 6.2832C6.76025 5.8652 6.09836 5.85858 5.69336 6.26758L2 9.99219V2ZM10 3C9.73478 3 9.48043 3.10536 9.29289 3.29289C9.10536 3.48043 9 3.73478 9 4C9 4.26522 9.10536 4.51957 9.29289 4.70711C9.48043 4.89464 9.73478 5 10 5C10.2652 5 10.5196 4.89464 10.7071 4.70711C10.8946 4.51957 11 4.26522 11 4C11 3.73478 10.8946 3.48043 10.7071 3.29289C10.5196 3.10536 10.2652 3 10 3ZM19.9844 3.98633C19.7195 3.99047 19.4671 4.09953 19.2825 4.28957C19.098 4.47962 18.9964 4.73512 19 5V16H5C4.86749 15.9981 4.73593 16.0226 4.61296 16.072C4.48999 16.1214 4.37807 16.1948 4.2837 16.2878C4.18933 16.3809 4.11439 16.4918 4.06324 16.614C4.0121 16.7363 3.98576 16.8675 3.98576 17C3.98576 17.1325 4.0121 17.2637 4.06324 17.386C4.11439 17.5082 4.18933 17.6191 4.2837 17.7122C4.37807 17.8052 4.48999 17.8786 4.61296 17.928C4.73593 17.9774 4.86749 18.0019 5 18H19C20.0931 18 21 17.0931 21 16V5C21.0018 4.86621 20.9768 4.73341 20.9264 4.60947C20.876 4.48553 20.8012 4.37297 20.7065 4.27845C20.6118 4.18393 20.4991 4.10937 20.375 4.05919C20.251 4.00902 20.1182 3.98424 19.9844 3.98633V3.98633Z" fill="white"/>
</svg>
