<svg width="12" height="12" viewBox="0 0 10 10" fill="none" xmlns="http://www.w3.org/2000/svg">
<path d="M0.928154 0.356506C0.457704 0.356506 0.0766602 0.735955 0.0766602 1.20444V2.05237C0.0766602 2.52085 0.457704 2.9003 0.928154 2.9003H8.5916C9.06205 2.9003 9.44309 2.52085 9.44309 2.05237V1.20444C9.44309 0.735955 9.06205 0.356506 8.5916 0.356506H0.928154ZM1.3539 1.20444C1.58891 1.20444 1.77965 1.39437 1.77965 1.6284C1.77965 1.86243 1.58891 2.05237 1.3539 2.05237C1.11889 2.05237 0.928154 1.86243 0.928154 1.6284C0.928154 1.39437 1.11889 1.20444 1.3539 1.20444ZM0.928154 3.74823C0.457704 3.74823 0.0766602 4.12768 0.0766602 4.59616V5.44409C0.0766602 5.91257 0.457704 6.29202 0.928154 6.29202H8.5916C9.06205 6.29202 9.44309 5.91257 9.44309 5.44409V4.59616C9.44309 4.12768 9.06205 3.74823 8.5916 3.74823H0.928154ZM1.3539 4.59616C1.58891 4.59616 1.77965 4.7861 1.77965 5.02013C1.77965 5.25416 1.58891 5.44409 1.3539 5.44409C1.11889 5.44409 0.928154 5.25416 0.928154 5.02013C0.928154 4.7861 1.11889 4.59616 1.3539 4.59616ZM0.928154 7.13995C0.457704 7.13995 0.0766602 7.5194 0.0766602 7.98788V8.83582C0.0766602 9.3043 0.457704 9.68375 0.928154 9.68375H8.5916C9.06205 9.68375 9.44309 9.3043 9.44309 8.83582V7.98788C9.44309 7.5194 9.06205 7.13995 8.5916 7.13995H0.928154ZM1.3539 7.98788C1.58891 7.98788 1.77965 8.17782 1.77965 8.41185C1.77965 8.64588 1.58891 8.83582 1.3539 8.83582C1.11889 8.83582 0.928154 8.64588 0.928154 8.41185C0.928154 8.17782 1.11889 7.98788 1.3539 7.98788Z" fill="white"/>
</svg>
