<svg width="12" height="11" viewBox="0 0 12 11" fill="none" xmlns="http://www.w3.org/2000/svg">
<path d="M1.21254 0.213608C1.07992 0.213643 0.950319 0.253228 0.840312 0.327304C0.730306 0.40138 0.644891 0.50658 0.594986 0.629455C0.545081 0.752329 0.532955 0.887295 0.560158 1.0171C0.58736 1.1469 0.652656 1.26564 0.747696 1.35814L4.94301 5.55345L0.747696 9.74876C0.683714 9.81019 0.632632 9.88377 0.597442 9.96519C0.562252 10.0466 0.543661 10.1342 0.542759 10.2229C0.541857 10.3116 0.558661 10.3996 0.592187 10.4817C0.625713 10.5638 0.675287 10.6384 0.738006 10.7012C0.800726 10.7639 0.875329 10.8135 0.957447 10.847C1.03957 10.8805 1.12755 10.8973 1.21624 10.8964C1.30493 10.8955 1.39256 10.8769 1.47398 10.8417C1.55539 10.8065 1.62897 10.7555 1.6904 10.6915L5.88572 6.49616L10.081 10.6915C10.1425 10.7555 10.216 10.8065 10.2975 10.8417C10.3789 10.8769 10.4665 10.8955 10.5552 10.8964C10.6439 10.8973 10.7319 10.8805 10.814 10.847C10.8961 10.8135 10.9707 10.7639 11.0334 10.7012C11.0961 10.6384 11.1457 10.5638 11.1792 10.4817C11.2128 10.3996 11.2296 10.3116 11.2287 10.2229C11.2278 10.1342 11.2092 10.0466 11.174 9.96519C11.1388 9.88377 11.0877 9.81019 11.0237 9.74876L6.82842 5.55345L11.0237 1.35814C11.1201 1.2645 11.1859 1.14394 11.2125 1.01226C11.2391 0.880577 11.2254 0.743921 11.173 0.620197C11.1207 0.496473 11.0321 0.391454 10.9191 0.318901C10.806 0.246348 10.6737 0.209647 10.5394 0.213608C10.3662 0.218768 10.2018 0.291155 10.081 0.415431L5.88572 4.61074L1.6904 0.415431C1.62828 0.351568 1.55398 0.300804 1.4719 0.26614C1.38983 0.231475 1.30164 0.213613 1.21254 0.213608Z" fill="white"/>
</svg>
