<svg width="23" height="14" viewBox="0 0 23 14" fill="none" xmlns="http://www.w3.org/2000/svg">
<path d="M16.8945 1.56497C17.6614 1.56497 18.2852 2.1432 18.2852 2.85424V8.01132C18.2852 8.72235 17.6614 9.30059 16.8945 9.30059H5.82566C5.0587 9.30059 4.43498 8.72235 4.43498 8.01132V2.85424C4.43498 2.1432 5.0587 1.56497 5.82566 1.56497H16.8945ZM16.8945 0.275696H5.82566C4.28966 0.275696 3.04431 1.43024 3.04431 2.85424V8.01132C3.04431 9.43531 4.28966 10.5899 5.82566 10.5899H16.8945C18.4305 10.5899 19.6758 9.43531 19.6758 8.01132V2.85424C19.6758 1.43024 18.4305 0.275696 16.8945 0.275696Z" fill="white"/>
<path fill-rule="evenodd" clip-rule="evenodd" d="M22.1085 12.7999C22.1085 13.1126 21.8665 13.366 21.5679 13.366L1.15231 13.366C0.853733 13.366 0.611696 13.1126 0.611696 12.7999C0.611696 12.4873 0.853733 12.2339 1.15231 12.2339L21.5679 12.2339C21.8665 12.2339 22.1085 12.4873 22.1085 12.7999Z" fill="white"/>
</svg>
