<svg width="12" height="12" viewBox="0 0 12 12" fill="none" xmlns="http://www.w3.org/2000/svg">
<path d="M0.667467 0.666046C0.467869 0.666046 0.306152 0.827763 0.306152 1.02736V3.44722C0.306152 3.76974 0.695992 3.93095 0.92419 3.70275L1.70387 2.92426L4.13561 5.356C4.19168 5.41441 4.25885 5.46103 4.33317 5.49316C4.40749 5.52528 4.48747 5.54225 4.56843 5.54307C4.64938 5.54389 4.72969 5.52856 4.80465 5.49795C4.87961 5.46735 4.94771 5.4221 5.00496 5.36485C5.06221 5.3076 5.10746 5.2395 5.13806 5.16455C5.16866 5.08959 5.184 5.00928 5.18318 4.92832C5.18235 4.84736 5.16538 4.76738 5.13326 4.69306C5.10114 4.61874 5.05451 4.55158 4.99611 4.49551L2.56437 2.06376L3.34286 1.28408C3.57106 1.05589 3.40984 0.666046 3.08732 0.666046H0.667467ZM8.47852 0.666046C8.156 0.666046 7.99478 1.05589 8.22298 1.28408L9.00147 2.06376L6.56973 4.49551C6.51133 4.55158 6.4647 4.61874 6.43258 4.69306C6.40046 4.76738 6.38349 4.84736 6.38266 4.92832C6.38184 5.00928 6.39718 5.08959 6.42778 5.16455C6.45838 5.2395 6.50364 5.3076 6.56089 5.36485C6.61813 5.4221 6.68623 5.46735 6.76119 5.49795C6.83615 5.52856 6.91646 5.5439 6.99742 5.54307C7.07838 5.54225 7.15836 5.52528 7.23268 5.49316C7.30699 5.46104 7.37416 5.41441 7.43023 5.356L9.86197 2.92426L10.6417 3.70275C10.8699 3.93095 11.2597 3.76974 11.2597 3.44722V1.02736C11.2597 0.827763 11.0974 0.666046 10.8972 0.666046H8.47852ZM4.55398 6.7454C4.39588 6.75011 4.24583 6.81619 4.13561 6.92963L1.70387 9.36137L0.92419 8.58288C0.695992 8.35468 0.306152 8.51589 0.306152 8.83841V11.2571C0.306152 11.4573 0.467869 11.6196 0.667467 11.6196H3.08732C3.40984 11.6196 3.57106 11.2297 3.34286 11.0015L2.56437 10.2219L4.99611 7.79012C5.08405 7.70465 5.14411 7.5946 5.16842 7.4744C5.19274 7.35421 5.18018 7.22947 5.13238 7.11653C5.08459 7.0036 5.00379 6.90774 4.90058 6.84151C4.79737 6.77529 4.67655 6.74179 4.55398 6.7454V6.7454ZM6.99404 6.7454C6.87298 6.74543 6.75468 6.78157 6.65427 6.84918C6.55386 6.9168 6.47589 7.01283 6.43034 7.12498C6.38479 7.23714 6.37372 7.36034 6.39855 7.47882C6.42338 7.59731 6.48298 7.70569 6.56973 7.79012L9.00147 10.2219L8.22298 11.0015C7.99478 11.2297 8.156 11.6196 8.47852 11.6196H10.8972C11.0974 11.6196 11.2597 11.4579 11.2597 11.2583V8.83841C11.2597 8.51589 10.8699 8.35468 10.6417 8.58288L9.86197 9.36137L7.43023 6.92963C7.37352 6.87133 7.3057 6.82499 7.23079 6.79335C7.15587 6.76171 7.07537 6.74541 6.99404 6.7454V6.7454Z" fill="white"/>
</svg>
