<svg width="14" height="13" viewBox="0 0 11 10" fill="none" xmlns="http://www.w3.org/2000/svg">
<path d="M10.2739 1.20456C10.2739 0.736077 9.89288 0.356628 9.42243 0.356628L8.57094 0.356628C8.10049 0.356628 7.71944 0.736077 7.71944 1.20456L7.71944 8.83594C7.71944 9.30442 8.10049 9.68387 8.57094 9.68387L9.42243 9.68387C9.89288 9.68387 10.2739 9.30442 10.2739 8.83594L10.2739 1.20456ZM9.42243 1.62852C9.42243 1.86255 9.2317 2.05249 8.99668 2.05249C8.76167 2.05249 8.57094 1.86255 8.57094 1.62852C8.57094 1.3945 8.76167 1.20456 8.99668 1.20456C9.2317 1.20456 9.42243 1.3945 9.42243 1.62852ZM6.86795 1.20456C6.86795 0.736077 6.48691 0.356628 6.01646 0.356628L5.16496 0.356628C4.69451 0.356628 4.31347 0.736077 4.31347 1.20456L4.31347 8.83594C4.31347 9.30442 4.69451 9.68387 5.16496 9.68387L6.01646 9.68387C6.48691 9.68387 6.86795 9.30442 6.86795 8.83594L6.86795 1.20456ZM6.01646 1.62852C6.01646 1.86255 5.82572 2.05249 5.59071 2.05249C5.3557 2.05249 5.16496 1.86255 5.16496 1.62852C5.16496 1.3945 5.3557 1.20456 5.59071 1.20456C5.82572 1.20456 6.01646 1.3945 6.01646 1.62852ZM3.46197 1.20456C3.46197 0.736077 3.08093 0.356628 2.61048 0.356628L1.75899 0.356628C1.28854 0.356628 0.907491 0.736077 0.907491 1.20456L0.90749 8.83594C0.90749 9.30442 1.28853 9.68387 1.75899 9.68387L2.61048 9.68387C3.08093 9.68387 3.46197 9.30442 3.46197 8.83594L3.46197 1.20456ZM2.61048 1.62852C2.61048 1.86255 2.41974 2.05249 2.18473 2.05249C1.94972 2.05249 1.75899 1.86255 1.75899 1.62852C1.75899 1.3945 1.94972 1.20456 2.18473 1.20456C2.41974 1.20456 2.61048 1.3945 2.61048 1.62852Z" fill="white"/>
</svg>
