<svg width="12" height="12" viewBox="0 0 10 10" fill="none" xmlns="http://www.w3.org/2000/svg">
<path d="M9.77487 2.90033H7.11395V0.250549H8.17831C9.06014 0.250549 9.77487 0.962281 9.77487 1.84042V2.90033ZM3.65475 0.250549H6.31567V2.90033H3.65475V0.250549ZM3.65475 3.69527H6.31567V6.34505H3.65475V3.69527ZM7.11395 3.69527H9.77487V6.34505H7.11395V3.69527ZM3.65475 7.13999H6.31567V9.78977H3.65475V7.13999ZM2.85648 2.90033H0.195557V1.84042C0.195557 0.962281 0.91028 0.250549 1.79211 0.250549H2.85648V2.90033ZM2.85648 9.78977H1.79211C0.91028 9.78977 0.195557 9.07804 0.195557 8.1999V7.13999H2.85648V9.78977ZM7.11395 9.78977H8.17831C9.06014 9.78977 9.77487 9.07804 9.77487 8.1999V7.13999H7.11395V9.78977ZM0.195557 3.69527H2.85648V6.34505H0.195557V3.69527Z" fill="white"/>
</svg>
