<svg width="12" height="12" viewBox="0 0 9 10" fill="none" xmlns="http://www.w3.org/2000/svg">
<path d="M4.49204 0.250824C4.36997 0.254374 4.25149 0.292737 4.15067 0.361358C4.04984 0.429979 3.97092 0.525973 3.92326 0.637941L0.414592 8.89645C0.380179 8.97356 0.361539 9.05674 0.35976 9.14111C0.357981 9.22548 0.373099 9.30936 0.404231 9.38784C0.435364 9.46633 0.481886 9.53786 0.541083 9.59825C0.60028 9.65863 0.670965 9.70667 0.74901 9.73956C0.827055 9.77244 0.910898 9.78951 0.995641 9.78977C1.08039 9.79003 1.16433 9.77348 1.24258 9.74108C1.32083 9.70868 1.39181 9.66108 1.45138 9.60106C1.51096 9.54104 1.55792 9.4698 1.58955 9.39151L2.36953 7.5558H6.65194L7.43192 9.39151C7.46354 9.4698 7.51051 9.54104 7.57008 9.60106C7.62965 9.66108 7.70064 9.70868 7.77888 9.74108C7.85713 9.77348 7.94108 9.79003 8.02582 9.78977C8.11057 9.78951 8.19441 9.77244 8.27246 9.73956C8.3505 9.70667 8.42118 9.65863 8.48038 9.59825C8.53958 9.53786 8.5861 9.46633 8.61723 9.38784C8.64837 9.30936 8.66349 9.22548 8.66171 9.14111C8.65993 9.05674 8.64129 8.97356 8.60687 8.89645L5.09821 0.637941C5.04807 0.520136 4.96337 0.420152 4.85522 0.351079C4.74706 0.282006 4.62048 0.247063 4.49204 0.250824ZM4.51073 2.51583L6.11243 6.28526H2.90903L4.51073 2.51583Z" fill="white"/>
</svg>
