<svg width="18" height="13" viewBox="0 0 15 10" fill="none" xmlns="http://www.w3.org/2000/svg">
<path d="M9.50967 1.48262C10.2141 1.48262 10.7869 2.01147 10.7869 2.66177V7.37839C10.7869 8.02869 10.2141 8.55755 9.50967 8.55755H5.62455C4.92015 8.55755 4.34731 8.02869 4.34731 7.37839V2.66177C4.34731 2.01147 4.92015 1.48262 5.62455 1.48262H9.50967ZM9.50967 0.303467H5.62455C4.21384 0.303467 3.07007 1.3594 3.07007 2.66177V7.37839C3.07007 8.68077 4.21384 9.7367 5.62455 9.7367H9.50967C10.9204 9.7367 12.0642 8.68077 12.0642 7.37839V2.66177C12.0642 1.3594 10.9204 0.303467 9.50967 0.303467Z" fill="white"/>
<path fill-rule="evenodd" clip-rule="evenodd" d="M1.45429 0.303467C1.87279 0.303467 2.21205 0.626123 2.21205 1.02414V8.97457C2.21205 9.37259 1.87279 9.69524 1.45429 9.69524C1.03579 9.69524 0.696533 9.37259 0.696533 8.97457V1.02414C0.696533 0.626123 1.03579 0.303467 1.45429 0.303467Z" fill="white"/>
<path fill-rule="evenodd" clip-rule="evenodd" d="M13.6799 0.345276C14.0984 0.345276 14.4376 0.667932 14.4376 1.06595V9.01638C14.4376 9.4144 14.0984 9.73705 13.6799 9.73705C13.2614 9.73705 12.9221 9.4144 12.9221 9.01638V1.06595C12.9221 0.667932 13.2614 0.345276 13.6799 0.345276Z" fill="white"/>
</svg>
