<svg width="18" height="10" viewBox="0 0 18 10" fill="none" xmlns="http://www.w3.org/2000/svg">
<path d="M14.3485 1.61578C15.1154 1.61578 15.7391 2.19402 15.7391 2.90505V6.73668C15.7391 7.44771 15.1154 8.02595 14.3485 8.02595H3.27964C2.51268 8.02595 1.88896 7.44771 1.88896 6.73668V2.90505C1.88896 2.19402 2.51268 1.61578 3.27964 1.61578H14.3485ZM14.3485 0.326508H3.27964C1.74364 0.326508 0.498291 1.48105 0.498291 2.90505V6.73668C0.498291 8.16068 1.74364 9.31522 3.27964 9.31522H14.3485C15.8845 9.31522 17.1298 8.16068 17.1298 6.73668V2.90505C17.1298 1.48105 15.8845 0.326508 14.3485 0.326508Z" fill="white"/>
<path fill-rule="evenodd" clip-rule="evenodd" d="M14.182 5.73685C13.8694 5.73685 13.6159 5.4948 13.6159 5.19623L13.6159 4.44551C13.6159 4.14693 13.8694 3.90489 14.182 3.90489C14.4946 3.90489 14.748 4.14693 14.748 4.44551L14.748 5.19623C14.748 5.49481 14.4946 5.73685 14.182 5.73685Z" fill="white"/>
</svg>
