<svg width="10" height="18" viewBox="0 0 10 18" fill="none" xmlns="http://www.w3.org/2000/svg">
<path d="M7.82914 14.3553C7.82914 15.1222 7.2509 15.7459 6.53987 15.7459L2.70824 15.7459C1.99721 15.7459 1.41897 15.1222 1.41897 14.3553L1.41897 3.28644C1.41897 2.51949 1.99721 1.89577 2.70824 1.89577L6.53987 1.89577C7.2509 1.89577 7.82914 2.51949 7.82914 3.28644L7.82914 14.3553ZM9.11841 14.3553L9.11841 3.28644C9.11841 1.75044 7.96387 0.505096 6.53987 0.505096L2.70824 0.505096C1.28424 0.505096 0.129699 1.75044 0.129699 3.28644L0.129698 14.3553C0.129698 15.8913 1.28424 17.1366 2.70824 17.1366L6.53987 17.1366C7.96387 17.1366 9.11841 15.8913 9.11841 14.3553Z" fill="#ffffff"/>
<path fill-rule="evenodd" clip-rule="evenodd" d="M3.70825 14.1888C3.70825 13.8762 3.95029 13.6228 4.24887 13.6228L4.99959 13.6228C5.29817 13.6228 5.54021 13.8762 5.54021 14.1888C5.54021 14.5015 5.29817 14.7549 4.99959 14.7549L4.24887 14.7549C3.95029 14.7549 3.70825 14.5014 3.70825 14.1888Z" fill="#ffffff"/>
</svg>
