<svg width="20" height="20" viewBox="0 0 20 20" fill="none" xmlns="http://www.w3.org/2000/svg">
<path d="M9.99997 0C9.65972 0 9.32028 0.0737031 9.00778 0.220703L0.513646 4.2168C-0.172354 4.5388 -0.172354 5.4602 0.513646 5.7832L4.22849 7.53125L0.513646 9.23633C-0.172354 9.55133 -0.172354 10.4487 0.513646 10.7637L4.30466 12.5039L0.560521 14.2012C-0.137479 14.5182 -0.145151 15.4543 0.546849 15.7812L9.00583 19.7773C9.63183 20.0733 10.3662 20.0743 10.9902 19.7773L19.4843 15.7637C20.1703 15.4397 20.1703 14.5135 19.4843 14.1895L15.8086 12.4531L19.4863 10.7656C20.1723 10.4506 20.1723 9.55133 19.4863 9.23633L15.7715 7.53125L19.4863 5.7832C20.1723 5.4612 20.1723 4.5398 19.4863 4.2168L10.9922 0.220703C10.6797 0.0737031 10.3402 0 9.99997 0ZM13.4043 8.64453L16.7812 10L10.0156 13.1445L3.33982 10L6.60544 8.64844L9.02536 9.78711C9.63936 10.0761 10.3606 10.0761 10.9746 9.78711L13.4043 8.64453Z" fill="white"/>
</svg>
