<svg width="16" height="16" viewBox="0 0 12 12" fill="none" xmlns="http://www.w3.org/2000/svg">
<path d="M1.46585 0.737976C1.29027 0.738019 1.1187 0.790225 0.973083 0.887914C0.827468 0.985604 0.714432 1.12433 0.648439 1.28636C0.582445 1.44838 0.566494 1.62632 0.602627 1.79742C0.638759 1.96852 0.725333 2.125 0.85127 2.24683L2.65939 4.04738C1.38531 4.86305 0.72575 5.91539 0.682405 5.98749C0.56301 6.18838 0.56301 6.43635 0.682405 6.63725C0.752984 6.75439 2.45726 9.53255 5.8862 9.53255C6.61607 9.53255 7.25765 9.39735 7.83102 9.19737L9.67361 11.0322C9.7549 11.1166 9.85227 11.1839 9.96002 11.2302C10.0678 11.2766 10.1837 11.3011 10.3011 11.3023C10.4185 11.3035 10.5349 11.2813 10.6436 11.2372C10.7522 11.193 10.851 11.1277 10.934 11.045C11.017 10.9624 11.0826 10.864 11.1269 10.7558C11.1713 10.6476 11.1935 10.5317 11.1923 10.4148C11.1911 10.2979 11.1665 10.1824 11.12 10.0751C11.0734 9.96785 11.0058 9.87088 10.9211 9.78993L2.0988 1.00451C2.01657 0.920181 1.91818 0.853139 1.80946 0.807356C1.70073 0.761574 1.58389 0.737981 1.46585 0.737976ZM5.8862 3.08991C5.87621 3.08991 5.8669 3.09105 5.85749 3.09105L10.3514 7.56612C10.8178 7.07824 11.0641 6.67944 11.09 6.6361C11.2094 6.43521 11.2094 6.18724 11.09 5.98635C11.0194 5.86862 9.31515 3.08991 5.8862 3.08991ZM4.26533 5.6466L6.55362 7.92532C6.3472 8.01185 6.12482 8.06831 5.8862 8.06831C4.91163 8.06831 4.12174 7.28172 4.12174 6.31123C4.12174 6.0736 4.17839 5.85216 4.26533 5.6466Z" fill="white"/>
</svg>
