<svg xmlns="http://www.w3.org/2000/svg" viewBox="0 0 24 24">
  <path d="M19.482422 2.0058594C18.868574 1.9915414 18.249155 2.192726 17.753906 2.6132812 A 1.0001 1.0001 0 0 0 17.751953 2.6152344L8.3789062 10.615234 A 1.0001 1.0001 0 0 0 8.3203125 10.667969C7.9401303 11.048151 7.749803 11.551289 7.7441406 12.056641C6.7948776 12.094998 5.8649059 12.457923 5.1621094 13.224609C4.7030913 13.725356 4.4103292 14.348544 4.0703125 15.107422C3.7302958 15.8663 3.3965424 16.733841 3.0976562 17.560547C2.4998841 19.21396 2.0429687 20.708984 2.0429688 20.708984 A 1.0001 1.0001 0 0 0 3.2773438 21.960938C3.2773438 21.960938 4.7752791 21.530148 6.4335938 20.943359C7.262751 20.649965 8.1338056 20.318263 8.8984375 19.970703C9.6630694 19.623143 10.300401 19.31288 10.806641 18.806641C11.512656 18.100625 11.887063 17.190234 11.958984 16.267578C12.464062 16.260355 12.966543 16.067655 13.345703 15.6875 A 1.0001 1.0001 0 0 0 13.398438 15.628906L21.392578 6.2402344 A 1.0001 1.0001 0 0 0 21.398438 6.234375C22.103009 5.3938552 22.01447 4.2763512 21.496094 3.3632812 A 1.0001 1.0001 0 0 0 21.181641 2.6933594 A 1.0001 1.0001 0 0 0 21.181641 2.6914062C20.706254 2.2485471 20.09627 2.0201774 19.482422 2.0058594 z M 19.435547 3.9960938C19.571089 3.9995614 19.705747 4.0531447 19.816406 4.15625C20.046562 4.3725474 20.068483 4.7067505 19.865234 4.9492188L14.394531 11.373047L12.634766 9.6132812L19.048828 4.1367188C19.16358 4.039274 19.300005 3.9926261 19.435547 3.9960938 z M 11.107422 10.914062L13.09375 12.900391L11.925781 14.271484L9.7382812 12.083984L11.107422 10.914062 z M 7.9785156 14.035156C8.484248 14.049476 9.006494 14.254162 9.4238281 14.636719C10.201008 15.349133 10.219383 16.565773 9.3925781 17.392578C9.2988171 17.486338 8.7494306 17.839747 8.0703125 18.148438C7.3911944 18.457128 6.5614677 18.775035 5.765625 19.056641C5.143343 19.276833 5.0772593 19.281794 4.5761719 19.441406C4.7432123 18.936798 4.751237 18.868877 4.9785156 18.240234C5.2671295 17.441941 5.587673 16.6087 5.8945312 15.923828C6.2013896 15.238956 6.5457368 14.675425 6.6367188 14.576172C6.9835763 14.197782 7.4727833 14.02084 7.9785156 14.035156 z" fill="#FFFFFF" />
</svg>