<svg width="14" height="15" viewBox="0 0 14 15" fill="none" xmlns="http://www.w3.org/2000/svg">
<path d="M7.59985 14.2142C8.41965 14.2142 9.09985 13.534 9.09985 12.7142L9.09985 2.21417C9.09985 1.39437 8.41965 0.714171 7.59985 0.714171L1.59985 0.714171C0.780057 0.714171 0.0998545 1.39437 0.0998546 2.21417L0.0998555 12.7142C0.0998556 13.534 0.780058 14.2142 1.59986 14.2142L7.59985 14.2142ZM7.59985 11.2142L1.59986 11.2142L1.59985 2.21417L7.59985 2.21417L7.59985 11.2142ZM13.1399 10.0364C13.3822 10.0079 13.5999 9.80962 13.5999 9.52228L13.5999 5.40607C13.5999 4.94707 13.0435 4.71657 12.718 5.04132L10.8137 6.94562C10.5272 7.23212 10.5272 7.69694 10.8137 7.98419L12.718 9.88702C12.8401 10.0088 12.9945 10.0536 13.1399 10.0364Z" fill="white"/>
</svg>
