<svg width="16" height="6" viewBox="0 0 16 6" fill="none" xmlns="http://www.w3.org/2000/svg">
<path d="M14.7379 0.18222C14.8285 0.18222 14.9192 0.216918 14.9883 0.28598C15.0577 0.354689 15.092 0.44572 15.092 0.536387V5.14055C15.092 5.32842 15.0174 5.50858 14.8846 5.64142C14.7517 5.77426 14.5716 5.84889 14.3837 5.84889H9.77954C9.68887 5.84889 9.59855 5.81384 9.52913 5.74513C9.39101 5.607 9.39101 5.38244 9.52913 5.24431L11.394 3.3794C10.397 2.49528 9.09241 1.95305 7.65454 1.95305C5.424 1.95305 3.49813 3.24417 2.57446 5.11842C2.37896 5.51509 1.92508 5.70968 1.50504 5.56943C1.00283 5.40226 0.747668 4.82865 0.98071 4.35336C2.18913 1.88482 4.71991 0.18222 7.65454 0.18222C9.58156 0.18222 11.3254 0.926193 12.6433 2.13014L14.4875 0.28598C14.5565 0.216918 14.6472 0.18222 14.7379 0.18222Z" fill="white"/>
</svg>
