<svg width="14" height="15" viewBox="0 0 14 15" fill="none" xmlns="http://www.w3.org/2000/svg">
<path d="M6.35474 14.0293C5.53494 14.0293 4.85474 13.3491 4.85474 12.5293L4.85474 2.0293C4.85474 1.2095 5.53494 0.529295 6.35474 0.529295L12.3547 0.529296C13.1745 0.529296 13.8547 1.2095 13.8547 2.0293L13.8547 12.5293C13.8547 13.3491 13.1745 14.0293 12.3547 14.0293L6.35474 14.0293ZM6.35474 11.0293L12.3547 11.0293L12.3547 2.0293L6.35474 2.0293L6.35474 11.0293ZM0.814698 9.85156C0.572412 9.82298 0.354737 9.62475 0.354737 9.3374L0.354737 5.22119C0.354737 4.76219 0.911073 4.53169 1.23657 4.85644L3.14087 6.76074C3.42737 7.04724 3.42737 7.51207 3.14087 7.79932L1.23657 9.70215C1.11451 9.82393 0.960069 9.86871 0.814698 9.85156Z" fill="white"/>
</svg>
