<svg width="11" height="12" viewBox="0 0 11 12" fill="none" xmlns="http://www.w3.org/2000/svg">
<path d="M8.89617 0.818492C8.67226 0.594583 8.36835 0.468597 8.05189 0.468597H1.38119C0.718422 0.468597 0.187012 1.00598 0.187012 1.66278V10.022C0.187012 10.6818 0.721408 11.2162 1.38119 11.2162H9.74046C10.3973 11.2162 10.9346 10.6788 10.9346 10.022V3.35135C10.9346 3.03489 10.8087 2.73097 10.5847 2.50706L8.89617 0.818492ZM5.56083 10.022C4.56966 10.022 3.76955 9.22194 3.76955 8.23077C3.76955 7.2396 4.56966 6.4395 5.56083 6.4395C6.552 6.4395 7.3521 7.2396 7.3521 8.23077C7.3521 9.22194 6.552 10.022 5.56083 10.022ZM6.75501 4.05114H1.97828C1.64869 4.05114 1.38119 3.78364 1.38119 3.45405V2.25987C1.38119 1.93027 1.64869 1.66278 1.97828 1.66278H6.75501C7.0846 1.66278 7.3521 1.93027 7.3521 2.25987V3.45405C7.3521 3.78364 7.0846 4.05114 6.75501 4.05114Z" fill="#6FCF97"/>
</svg>
