<svg width="16" height="16" viewBox="0 0 16 16" fill="none" xmlns="http://www.w3.org/2000/svg">
<path d="M14.9562 6.93258L14.4212 6.79882C14.347 6.30121 14.2175 5.81584 14.0348 5.35101L14.4304 4.96861C14.6443 4.76201 14.69 4.43755 14.5413 4.17865L14.3136 3.78466C14.1646 3.52642 13.8603 3.40458 13.5743 3.48536L13.0382 3.63865C12.7267 3.24831 12.3728 2.89471 11.9827 2.58317L12.136 2.04748C12.2178 1.76142 12.095 1.45749 11.8374 1.3085L11.4428 1.08072C11.1845 0.931734 10.8597 0.977754 10.6535 1.19163L10.2704 1.58727C9.80489 1.40452 9.31986 1.27507 8.8229 1.20123L8.68882 0.66422C8.61631 0.375187 8.35741 0.173889 8.06009 0.173889H7.60486C7.30722 0.173889 7.04864 0.375187 6.97647 0.66422L6.84238 1.20024C6.34476 1.2744 5.85973 1.40386 5.39489 1.58661L5.01216 1.1913C4.8059 0.977423 4.48177 0.932065 4.2222 1.08006L3.82755 1.30784C3.56964 1.45683 3.44681 1.76076 3.52892 2.04682L3.68221 2.58217C3.29219 2.89372 2.93827 3.24765 2.62672 3.63766L2.09037 3.48437C1.80332 3.40326 1.50005 3.52576 1.35173 3.78334L1.12394 4.17799C0.975287 4.4359 1.02098 4.76069 1.23485 4.96728L1.63083 5.35001C1.44807 5.81485 1.31862 6.30022 1.24446 6.79783L0.70976 6.93159C0.420064 7.00409 0.217773 7.26267 0.217773 7.5613V8.01654C0.217773 8.31484 0.419733 8.57342 0.708105 8.6446L1.24413 8.77869C1.31829 9.2763 1.44774 9.76167 1.6305 10.2265L1.23485 10.6089C1.02098 10.8158 0.975287 11.1403 1.12394 11.3989L1.35173 11.7929C1.50071 12.0511 1.80465 12.1733 2.09103 12.0922L2.62705 11.9389C2.9386 12.3292 3.29252 12.6828 3.68254 12.9943L3.52925 13.53C3.44747 13.8161 3.5703 14.12 3.82788 14.269L4.22253 14.4968C4.48144 14.6458 4.8059 14.6004 5.01183 14.3859L5.39489 13.9902C5.86039 14.173 6.34542 14.3024 6.84238 14.3763L6.97647 14.9133C7.04897 15.2023 7.30788 15.4036 7.60486 15.4036H8.06009C8.35774 15.4036 8.61631 15.202 8.68849 14.913L8.82257 14.3773C9.31953 14.3031 9.80489 14.1737 10.2704 13.9909L10.6528 14.3862C10.8594 14.6004 11.1838 14.6458 11.4428 14.4975L11.8374 14.2697C12.0953 14.1207 12.2181 13.8168 12.136 13.5307L11.9827 12.9953C12.3728 12.6838 12.7267 12.3299 13.0382 11.9399L13.5746 12.0931C13.8613 12.1743 14.1649 12.0518 14.3132 11.7942L14.541 11.3995C14.6897 11.1416 14.644 10.8168 14.4301 10.6102L14.0341 10.2275C14.2169 9.762 14.3467 9.27664 14.4205 8.77968L14.9552 8.64593C15.2452 8.57342 15.4475 8.31484 15.4475 8.01654V7.5613C15.4475 7.26267 15.2455 7.00443 14.9562 6.93258ZM3.82126 9.33987C3.63486 8.85815 3.52859 8.33637 3.52859 7.78876C3.52859 7.24115 3.63486 6.71936 3.82126 6.23764L5.88059 7.42655C5.85907 7.54409 5.84615 7.66493 5.84615 7.78876C5.84615 7.91258 5.85907 8.03343 5.88059 8.15096L3.82126 9.33987ZM7.17048 12.0365C6.08851 11.869 5.13996 11.3025 4.48243 10.4874L6.54308 9.29783C6.7265 9.45476 6.93872 9.57759 7.17048 9.6597V12.0365ZM7.17048 5.91782C6.93839 5.99993 6.72617 6.12276 6.54308 6.27969L4.48243 5.09011C5.13996 4.27499 6.08884 3.70851 7.17048 3.54099V5.91782ZM8.4948 3.54099C9.57678 3.70851 10.5253 4.27499 11.1829 5.09011L9.1222 6.27969C8.93878 6.12276 8.72656 5.99993 8.4948 5.91782V3.54099ZM8.4948 12.0365V9.6597C8.72689 9.57759 8.93911 9.45476 9.1222 9.29783L11.1829 10.4874C10.5253 11.3025 9.57645 11.869 8.4948 12.0365ZM11.844 9.33987L9.7847 8.15096C9.80622 8.03343 9.81913 7.91258 9.81913 7.78876C9.81913 7.66493 9.80622 7.54409 9.7847 7.42655L11.844 6.23764C12.0304 6.71936 12.1367 7.24115 12.1367 7.78876C12.1367 8.33637 12.0304 8.85815 11.844 9.33987Z" fill="white"/>
</svg>
