<svg width="13" height="13" viewBox="0 0 13 13" fill="none" xmlns="http://www.w3.org/2000/svg">
<path d="M11.5528 0.828857C11.2527 0.828857 10.9743 0.942234 10.7662 1.15036L10.5444 1.37209C10.4417 1.31803 10.3121 1.33416 10.2256 1.42066L6.86007 4.78563L7.2444 5.16995L8.34987 6.27542L8.73103 6.65658L12.096 3.29108C12.1906 3.19648 12.2013 3.04813 12.1229 2.94001L12.3394 2.72357C12.7718 2.28839 12.7718 1.58554 12.3394 1.15036C12.1312 0.942234 11.8528 0.828857 11.5528 0.828857ZM1.76722 1.02524C1.40741 1.04557 1.06498 1.20896 0.830158 1.49615C0.5031 1.89078 0.446127 2.45321 0.681284 2.92893C0.692096 2.95325 0.710869 2.97752 0.732493 2.99914L4.68979 6.95644L5.06831 7.34552L6.17905 8.4457L6.56021 8.82686L6.89016 9.15365L6.89808 9.16209L8.54678 10.4618C8.5657 10.4754 8.58481 10.4891 8.60644 10.4972C8.68752 10.5323 8.76866 10.5565 8.85245 10.5727V10.597C8.86596 10.9592 8.96329 11.6404 9.48226 12.1485C9.8877 12.5459 10.45 12.7435 11.0555 12.7435C11.6393 12.7435 12.2661 12.557 12.8256 12.1813C12.931 12.111 12.9769 11.9782 12.9417 11.8566C12.9066 11.7323 12.7958 11.6487 12.6688 11.6433C12.4039 11.6379 12.1904 11.5703 12.0363 11.4432C11.839 11.2757 11.7798 11.0405 11.7122 10.7675C11.6338 10.4567 11.5474 10.1025 11.2339 9.82411C10.9609 9.58354 10.5798 9.46751 10.1068 9.47832C10.1014 9.34858 10.0717 9.21892 10.0149 9.09188C10.0041 9.07026 9.99307 9.05115 9.97956 9.03222L8.67137 7.37244C8.66326 7.36433 8.65783 7.35627 8.64973 7.34816L8.34406 7.04302L7.96607 6.65658L6.86007 5.55058L6.471 5.17523L2.49258 1.20157C2.46826 1.17724 2.44365 1.15853 2.41392 1.14772C2.20512 1.05244 1.9831 1.01305 1.76722 1.02524ZM10.4172 1.99398L11.5227 3.09945L10.7852 3.83959L9.6797 2.73413L10.4172 1.99398ZM4.30071 7.34552L1.73818 9.90805C1.71115 9.93508 1.6894 9.97005 1.67589 10.0052L0.784229 12.384C0.749091 12.484 0.773016 12.595 0.845996 12.6707C0.897352 12.722 0.967882 12.7488 1.03816 12.7488C1.07059 12.7488 1.10292 12.7432 1.13266 12.7324L3.51147 11.8408C3.54661 11.8273 3.58158 11.8055 3.60861 11.7785L6.17905 9.20802L5.79526 8.8295L4.68715 7.72668L4.30071 7.34552ZM8.61172 8.17277L9.53083 9.33789C9.60651 9.54061 9.56592 9.75945 9.41996 9.90541C9.27671 10.0487 9.05517 10.092 8.85245 10.0136L7.67941 9.08924C7.89024 9.00815 8.13065 8.86734 8.33878 8.62678C8.4523 8.49163 8.54684 8.33765 8.61172 8.17277ZM2.02748 10.6081L2.19747 10.7786C2.24883 10.8272 2.31666 10.8567 2.38964 10.8567H2.65993V11.127C2.65993 11.2 2.68941 11.2678 2.73806 11.3192L2.90858 11.4892L1.87069 11.8782L1.63841 11.646L2.02748 10.6081Z" fill="white"/>
</svg>
