<svg width="14" height="14" viewBox="0 0 14 14" fill="none" xmlns="http://www.w3.org/2000/svg">
<path d="M10.7169 1.63799C11.4839 1.63799 12.1076 2.21623 12.1076 2.92726V10.7144C12.1076 11.4255 11.4839 12.0037 10.7169 12.0037H2.88987C2.12291 12.0037 1.49919 11.4255 1.49919 10.7144V2.92726C1.49919 2.21623 2.12291 1.63799 2.88987 1.63799H10.7169ZM10.7169 0.348724H2.88987C1.35387 0.348724 0.108521 1.50327 0.108521 2.92726V10.7144C0.108521 12.1384 1.35387 13.293 2.88987 13.293H10.7169C12.2529 13.293 13.4983 12.1384 13.4983 10.7144V2.92726C13.4983 1.50327 12.2529 0.348724 10.7169 0.348724Z" fill="white"/>
<path fill-rule="evenodd" clip-rule="evenodd" d="M7.71936 10.6482C7.71936 10.9608 7.47732 11.2143 7.17874 11.2143L6.42802 11.2143C6.12945 11.2143 5.88741 10.9608 5.88741 10.6482C5.88741 10.3356 6.12945 10.0822 6.42802 10.0822L7.17874 10.0822C7.47732 10.0822 7.71936 10.3356 7.71936 10.6482Z" fill="white"/>
<path fill-rule="evenodd" clip-rule="evenodd" d="M7.71936 10.6482C7.71936 10.9608 7.47732 11.2143 7.17874 11.2143L6.42802 11.2143C6.12945 11.2143 5.88741 10.9608 5.88741 10.6482C5.88741 10.3356 6.12945 10.0822 6.42802 10.0822L7.17874 10.0822C7.47732 10.0822 7.71936 10.3356 7.71936 10.6482Z" fill="white"/>
</svg>
