<svg width="15" height="6" viewBox="0 0 15 6" fill="none" xmlns="http://www.w3.org/2000/svg">
<path d="M1.04948 0.18222C0.958813 0.18222 0.868135 0.216918 0.799072 0.28598C0.729656 0.354689 0.695312 0.44572 0.695312 0.536387V5.14055C0.695313 5.32842 0.76994 5.50858 0.902779 5.64142C1.03562 5.77426 1.21578 5.84889 1.40365 5.84889H6.00781C6.09848 5.84889 6.1888 5.81384 6.25822 5.74513C6.39635 5.607 6.39635 5.38244 6.25822 5.24431L4.39331 3.3794C5.39034 2.49528 6.69494 1.95305 8.13281 1.95305C10.3634 1.95305 12.2892 3.24417 13.2129 5.11842C13.4084 5.51509 13.8623 5.70968 14.2823 5.56943C14.7845 5.40226 15.0397 4.82865 14.8066 4.35336C13.5982 1.88482 11.0674 0.18222 8.13281 0.18222C6.20579 0.18222 4.46192 0.926193 3.14404 2.13014L1.29989 0.28598C1.23082 0.216918 1.14015 0.18222 1.04948 0.18222Z" fill="white"/>
</svg>
