<svg width="25" height="14" viewBox="0 0 25 14" fill="none" xmlns="http://www.w3.org/2000/svg">
<path d="M21.8304 1.56497C22.5973 1.56497 23.2211 2.1432 23.2211 2.85424V8.01131C23.2211 8.72235 22.5973 9.30059 21.8304 9.30059H2.98813C2.22118 9.30059 1.59746 8.72235 1.59746 8.01131V2.85424C1.59746 2.1432 2.22118 1.56497 2.98813 1.56497H21.8304ZM21.8304 0.275696H2.98813C1.45213 0.275696 0.206787 1.43024 0.206787 2.85424V8.01131C0.206787 9.43531 1.45213 10.5899 2.98813 10.5899H21.8304C23.3664 10.5899 24.6117 9.43531 24.6117 8.01131V2.85424C24.6117 1.43024 23.3664 0.275696 21.8304 0.275696Z" fill="white"/>
<path fill-rule="evenodd" clip-rule="evenodd" d="M15.3119 12.7999C15.3119 13.1126 15.0698 13.366 14.7713 13.366L8.80722 13.366C8.50865 13.366 8.2666 13.1126 8.2666 12.7999C8.2666 12.4873 8.50865 12.2339 8.80722 12.2339L14.7713 12.2339C15.0698 12.2339 15.3119 12.4873 15.3119 12.7999Z" fill="white"/>
</svg>
